<svg xmlns="http://www.w3.org/2000/svg" viewBox="0 0 800 500"><defs><linearGradient id="g" x1="0" y1="0" x2="1" y2="1"><stop stop-color="#20232b"/><stop offset="1" stop-color="#9b6c20"/></linearGradient></defs><rect width="800" height="500" fill="url(#g)"/><rect x="90" y="165" width="620" height="265" rx="18" fill="#15171d" opacity=".85"/><rect x="130" y="110" width="540" height="340" rx="22" fill="#232733"/><g fill="#d6aa4d"><rect x="170" y="155" width="55" height="55" rx="8"/><rect x="260" y="155" width="55" height="55" rx="8"/><rect x="350" y="155" width="55" height="55" rx="8"/><rect x="440" y="155" width="55" height="55" rx="8"/><rect x="530" y="155" width="55" height="55" rx="8"/><rect x="170" y="245" width="55" height="55" rx="8"/><rect x="260" y="245" width="55" height="55" rx="8"/><rect x="350" y="245" width="55" height="55" rx="8"/><rect x="440" y="245" width="55" height="55" rx="8"/><rect x="530" y="245" width="55" height="55" rx="8"/></g><rect x="345" y="350" width="110" height="100" rx="12" fill="#111"/><text x="400" y="72" text-anchor="middle" font-family="Arial" font-size="40" font-weight="700" fill="#fff">Hazeyn Otel Görseli</text></svg>
