<svg xmlns="http://www.w3.org/2000/svg" viewBox="0 0 800 500"><defs><linearGradient id="s" x1="0" y1="0" x2="0" y2="1"><stop stop-color="#83a9bf"/><stop offset="1" stop-color="#f4e5bf"/></linearGradient></defs><rect width="800" height="500" fill="url(#s)"/><circle cx="650" cy="90" r="70" fill="#d7a84b" opacity=".8"/><path d="M0 360 C120 265 210 310 320 220 C450 110 540 225 650 145 C710 100 760 90 800 82 L800 500 L0 500Z" fill="#415f3d"/><path d="M0 395 C160 310 290 350 405 270 C535 180 620 285 800 205 L800 500 L0 500Z" fill="#182b22" opacity=".85"/><path d="M120 420 C260 365 395 390 525 330 C640 275 720 292 800 260 L800 500 L120 500Z" fill="#101914" opacity=".9"/><text x="400" y="80" text-anchor="middle" font-family="Arial" font-size="42" font-weight="700" fill="#fff">Yurt İçi Tur</text></svg>
